<?xml version="1.0" encoding="UTF-8" standalone="no"?>
<!-- Created with Inkscape (http://www.inkscape.org/) -->

<svg
   viewBox="0 0 168.06874 45.649635"
   version="1.1"
   id="svg1"
   xml:space="preserve"
   xmlns:xlink="http://www.w3.org/1999/xlink"
   xmlns="http://www.w3.org/2000/svg"
   xmlns:svg="http://www.w3.org/2000/svg"><defs
     id="defs1"><linearGradient
       id="linearGradient106"><stop
         style="stop-color:#f9f9f9;stop-opacity:1;"
         offset="0"
         id="stop106" /><stop
         style="stop-color:#def4ff;stop-opacity:1;"
         offset="1"
         id="stop107" /></linearGradient><linearGradient
       id="linearGradient86"><stop
         style="stop-color:#0077ff;stop-opacity:1;"
         offset="0"
         id="stop85" /><stop
         style="stop-color:#0e2866;stop-opacity:1;"
         offset="1"
         id="stop86" /></linearGradient><linearGradient
       id="linearGradient84"><stop
         style="stop-color:#0e2866;stop-opacity:1;"
         offset="0"
         id="stop83" /><stop
         style="stop-color:#0077ff;stop-opacity:1;"
         offset="1"
         id="stop84" /></linearGradient><linearGradient
       id="linearGradient82"><stop
         style="stop-color:#bbd6ff;stop-opacity:1;"
         offset="0"
         id="stop81" /><stop
         style="stop-color:#0077ff;stop-opacity:1;"
         offset="1"
         id="stop82" /></linearGradient><style
       id="style1">.cls-1{fill:#07f;}.cls-2{fill:none;}.cls-3{fill:#fff;}.cls-4{fill:#0e2866;}</style><style
       id="style1-4">.cls-1{fill:#07f;}.cls-2{fill:none;}.cls-3{fill:#fff;}.cls-4{fill:#0e2866;}</style><linearGradient
       xlink:href="#linearGradient82"
       id="linearGradient79"
       gradientUnits="userSpaceOnUse"
       x1="115.11089"
       y1="168.03795"
       x2="120.54407"
       y2="175.248"
       gradientTransform="translate(0,41.730658)" /><linearGradient
       xlink:href="#linearGradient86"
       id="linearGradient80"
       gradientUnits="userSpaceOnUse"
       x1="117.85478"
       y1="160.46272"
       x2="117.85478"
       y2="175.63155"
       gradientTransform="translate(0,41.730658)" /><linearGradient
       xlink:href="#linearGradient84"
       id="linearGradient81"
       gradientUnits="userSpaceOnUse"
       x1="132.31549"
       y1="191.68443"
       x2="137.72089"
       y2="191.68443" /><radialGradient
       xlink:href="#linearGradient106"
       id="radialGradient107"
       cx="118.13654"
       cy="209.98325"
       fx="118.13654"
       fy="209.98325"
       r="48.91032"
       gradientTransform="matrix(1.9319015,0,0,0.72000102,-131.56904,91.18633)"
       gradientUnits="userSpaceOnUse" /></defs><g
     id="layer1"
     transform="translate(-12.624752,-219.54966)"><rect
       style="opacity:1;fill:url(#radialGradient107);stroke:none;stroke-width:1.42781;stroke-linecap:round;stroke-linejoin:miter;stroke-miterlimit:10;stroke-dasharray:none;stroke-opacity:1;paint-order:stroke fill markers"
       id="rect106"
       width="168.06874"
       height="45.649635"
       x="12.624752"
       y="219.54965"
       ry="7.5713387" /><g
       id="g106"
       transform="translate(-22.134809,25.4)"><path
         id="path75"
         style="fill:url(#linearGradient80);fill-opacity:1;stroke:none;stroke-width:1;stroke-linecap:round;stroke-linejoin:miter;stroke-miterlimit:10;stroke-dasharray:none;stroke-opacity:1;paint-order:stroke fill markers"
         d="m 116.70174,200.58245 c -4.0345,2.89718 -2.73566,9.30777 -4.02249,9.33897 -0.86571,0.021 -0.59319,-4.76763 0.44803,-5.89163 -4.32642,3.76982 -4.55291,14.93765 4.72751,14.93765 6.84663,0 10.17838,-7.28743 5.22388,-13.2891 0.91369,2.67329 0.62705,5.75815 -0.62499,5.72775 -2.11454,-0.0515 1.93827,-4.21184 -4.27089,-10.75904 1.34998,2.44908 2.77628,7.71229 1.28467,7.79849 -1.48094,0.0856 -0.96173,-2.88434 -2.41949,-5.18521 0,0 0.24914,2.95414 -0.65319,2.94814 -1.16954,-0.008 -0.79228,-3.63185 0.30696,-5.62602 z" /><path
         id="path76"
         style="fill:url(#linearGradient79);fill-opacity:1;stroke:none;stroke-width:0.500615;stroke-linecap:round;stroke-linejoin:miter;stroke-miterlimit:10;stroke-dasharray:none;stroke-opacity:1;paint-order:stroke fill markers"
         d="m 117.81714,217.17469 c 2.85925,0 5.13577,-1.78973 4.37728,-3.96414 -0.52944,-1.51775 -2.78045,-2.06653 -4.40194,-1.15486 -1.28602,0.72306 -2.66192,0.31526 -1.71858,-2.49616 -4.13576,0.95935 -3.58327,7.61516 1.74324,7.61516 z" /><path
         id="path61"
         style="opacity:1;fill:#0e2866;fill-opacity:1;stroke-linecap:round;stroke-linejoin:round"
         transform="matrix(1.6471245,0,0,-1.6471245,13.231784,427.17501)"
         d="m 64.880784,125.55661 -2.724413,0 a 0.31442399,0.31442399 64.121885 0 1 -0.246944,-0.50906 l 1.35037,-1.71331 a 0.32949544,0.32949544 6.9278102e-6 0 1 0.517562,0 l 1.350369,1.71331 a 0.31442409,0.31442409 115.87812 0 1 -0.246944,0.50906 z" /><g
         id="g74"
         transform="translate(0.1769251,41.201491)"><path
           style="font-style:italic;font-weight:bold;font-size:10.5833px;line-height:1.25;font-family:Calibri;-inkscape-font-specification:'Calibri Bold Italic';text-align:center;text-anchor:middle;fill:#0077ff;fill-opacity:1;stroke-width:0.264583"
           d="m 146.14929,185.69511 c 0,0.0413 -0.007,0.10334 -0.0207,0.18603 -0.0103,0.0792 -0.0276,0.1602 -0.0517,0.24288 -0.0241,0.0827 -0.0534,0.15503 -0.0878,0.21704 -0.031,0.0586 -0.0672,0.0879 -0.10852,0.0879 -0.0448,0 -0.0982,-0.0155 -0.16019,-0.0465 -0.0585,-0.0345 -0.13088,-0.0706 -0.21705,-0.10852 -0.0861,-0.0413 -0.18776,-0.0775 -0.30489,-0.10852 -0.11369,-0.031 -0.24804,-0.0465 -0.40307,-0.0465 -0.12058,0 -0.2291,0.0155 -0.32556,0.0465 -0.093,0.031 -0.17053,0.0741 -0.23254,0.12919 -0.062,0.0517 -0.11023,0.11368 -0.1447,0.18603 -0.031,0.0724 -0.0465,0.14986 -0.0465,0.23255 0,0.10679 0.0431,0.19636 0.12919,0.26871 0.0896,0.0724 0.19982,0.14125 0.33073,0.20671 0.13091,0.062 0.27216,0.12746 0.42375,0.19637 0.15158,0.0689 0.29283,0.15503 0.42374,0.25838 0.13091,0.10335 0.23943,0.2291 0.32556,0.37724 0.0861,0.14814 0.12919,0.33417 0.12919,0.5581 0,0.26183 -0.0499,0.50471 -0.14986,0.72864 -0.0999,0.22048 -0.24632,0.41168 -0.43924,0.5736 -0.18948,0.16192 -0.42202,0.28939 -0.69763,0.38241 -0.27217,0.0896 -0.5805,0.13436 -0.92501,0.13436 -0.16537,0 -0.32384,-0.0121 -0.47542,-0.0362 -0.14814,-0.0241 -0.2825,-0.0534 -0.40308,-0.0879 -0.11713,-0.0345 -0.21704,-0.0741 -0.29972,-0.11885 -0.0827,-0.0448 -0.14469,-0.0861 -0.18603,-0.12403 -0.0275,-0.0275 -0.0482,-0.0568 -0.062,-0.0879 -0.0103,-0.031 -0.0155,-0.0706 -0.0155,-0.11885 0,-0.031 0.002,-0.0706 0.005,-0.11886 0.007,-0.0482 0.0155,-0.1016 0.0258,-0.16019 0.0138,-0.0586 0.0276,-0.11717 0.0413,-0.1757 0.0172,-0.0586 0.0361,-0.112 0.0568,-0.1602 0.0207,-0.0483 0.0431,-0.0862 0.0672,-0.11369 0.0241,-0.031 0.05,-0.0465 0.0775,-0.0465 0.0482,0 0.1016,0.0207 0.16019,0.062 0.0585,0.0413 0.13433,0.0878 0.22738,0.13952 0.093,0.0483 0.2067,0.0948 0.34106,0.13953 0.13781,0.0413 0.30834,0.062 0.5116,0.062 0.14125,0 0.26355,-0.0155 0.3669,-0.0465 0.1068,-0.0345 0.19465,-0.081 0.26355,-0.13952 0.0689,-0.0586 0.11885,-0.12578 0.14986,-0.20154 0.0345,-0.0758 0.0517,-0.15675 0.0517,-0.24288 0,-0.12058 -0.0431,-0.21877 -0.1292,-0.29456 -0.0827,-0.0758 -0.18775,-0.14641 -0.31522,-0.21187 -0.12747,-0.0655 -0.26699,-0.13265 -0.41858,-0.20154 -0.14814,-0.0689 -0.28594,-0.1533 -0.41341,-0.25321 -0.12747,-0.0999 -0.23426,-0.22393 -0.32039,-0.37207 -0.0827,-0.14814 -0.12402,-0.33417 -0.12402,-0.5581 0,-0.2446 0.0465,-0.47198 0.13952,-0.68213 0.093,-0.21015 0.2291,-0.39274 0.40824,-0.54777 0.17915,-0.15847 0.39619,-0.28077 0.65112,-0.3669 0.25494,-0.0896 0.54433,-0.13436 0.86817,-0.13436 0.14469,0 0.28422,0.0103 0.41857,0.031 0.13781,0.0172 0.26011,0.0413 0.36691,0.0724 0.11024,0.031 0.20498,0.0654 0.28421,0.10335 0.0827,0.0379 0.14125,0.0758 0.1757,0.11369 0.0379,0.0345 0.0568,0.093 0.0568,0.1757 z"
           id="path62" /><path
           style="font-style:italic;font-weight:bold;font-size:10.5833px;line-height:1.25;font-family:Calibri;-inkscape-font-specification:'Calibri Bold Italic';text-align:center;text-anchor:middle;fill:#0077ff;fill-opacity:1;stroke-width:0.264583"
           d="m 142.44927,185.42122 c 0,0.0241 -0.003,0.0672 -0.0103,0.12919 -0.007,0.062 -0.0172,0.13435 -0.031,0.21704 -0.0138,0.0827 -0.031,0.16881 -0.0517,0.25838 -0.0207,0.0861 -0.0448,0.16709 -0.0724,0.24288 -0.0241,0.0758 -0.0534,0.13781 -0.0879,0.18604 -0.031,0.0482 -0.0654,0.0723 -0.10335,0.0723 -0.031,0 -0.062,-0.005 -0.093,-0.0155 -0.031,-0.0138 -0.0654,-0.0259 -0.10335,-0.0362 -0.0379,-0.0138 -0.0792,-0.0259 -0.12402,-0.0362 -0.0448,-0.0138 -0.0965,-0.0207 -0.15503,-0.0207 -0.11713,0 -0.24288,0.0448 -0.37724,0.13436 -0.13091,0.0896 -0.25666,0.20843 -0.37724,0.35657 -0.12057,0.14469 -0.22909,0.31522 -0.32556,0.51159 -0.093,0.19293 -0.16019,0.39619 -0.20153,0.60978 l -0.41341,2.07222 c -0.007,0.0345 -0.0241,0.0655 -0.0517,0.093 -0.0241,0.0241 -0.0637,0.0448 -0.11886,0.062 -0.0517,0.0172 -0.12057,0.0293 -0.2067,0.0362 -0.0861,0.0103 -0.1912,0.0155 -0.31523,0.0155 -0.12747,0 -0.23254,-0.005 -0.31522,-0.0155 -0.0792,-0.007 -0.14297,-0.0189 -0.1912,-0.0362 -0.0448,-0.0172 -0.0741,-0.0379 -0.0879,-0.062 -0.0138,-0.0275 -0.0172,-0.0585 -0.0103,-0.093 l 0.91984,-4.61469 c 0.007,-0.0345 0.0224,-0.0638 0.0465,-0.0879 0.0241,-0.0275 0.0586,-0.0482 0.10335,-0.062 0.0483,-0.0172 0.10856,-0.0293 0.18087,-0.0362 0.0758,-0.0103 0.16536,-0.0155 0.26871,-0.0155 0.1068,0 0.19293,0.005 0.25839,0.0155 0.0689,0.007 0.1223,0.0189 0.16019,0.0362 0.0379,0.0138 0.062,0.0345 0.0724,0.062 0.0138,0.0241 0.0172,0.0534 0.0103,0.0879 l -0.14469,0.7338 c 0.0827,-0.14813 0.17742,-0.28421 0.28422,-0.40824 0.11024,-0.12402 0.22565,-0.23082 0.34623,-0.32039 0.12403,-0.093 0.2515,-0.16537 0.38241,-0.21704 0.13091,-0.0517 0.2601,-0.0775 0.38757,-0.0775 0.0517,0 0.10334,0.003 0.15503,0.0103 0.0551,0.007 0.10509,0.0155 0.14986,0.0258 0.0482,0.0103 0.0895,0.0241 0.12402,0.0413 0.0379,0.0138 0.0672,0.0293 0.0879,0.0465 0.0207,0.0207 0.031,0.0534 0.031,0.0982 z"
           id="path63" /><path
           style="font-style:italic;font-weight:bold;font-size:10.5833px;line-height:1.25;font-family:Calibri;-inkscape-font-specification:'Calibri Bold Italic';text-align:center;text-anchor:middle;fill:url(#linearGradient81);stroke-width:0.264583"
           d="m 137.72088,191.41567 c 0,0.0207 -0.003,0.0534 -0.0103,0.0982 -0.004,0.0483 -0.0104,0.0999 -0.0207,0.15503 -0.0103,0.0551 -0.0241,0.11198 -0.0413,0.17053 -0.0172,0.0586 -0.0396,0.112 -0.0672,0.1602 -0.0241,0.0483 -0.0534,0.0879 -0.0879,0.11886 -0.031,0.031 -0.0689,0.0465 -0.11368,0.0465 h -4.90925 c -0.0586,0 -0.0982,-0.0189 -0.11886,-0.0568 -0.0241,-0.0379 -0.0362,-0.0878 -0.0362,-0.14986 0,-0.0241 0.003,-0.0586 0.0103,-0.10335 0.004,-0.0448 0.0104,-0.0965 0.0207,-0.15503 0.0103,-0.0551 0.0258,-0.11198 0.0465,-0.17053 0.0172,-0.0586 0.0379,-0.112 0.062,-0.1602 0.0241,-0.0483 0.0534,-0.0879 0.0878,-0.11886 0.0345,-0.031 0.0741,-0.0465 0.11886,-0.0465 h 4.90408 c 0.0551,0 0.0947,0.0189 0.11885,0.0568 0.0241,0.0379 0.0362,0.0895 0.0362,0.15503 z"
           id="path64" /><path
           id="path65"
           style="font-style:italic;font-weight:bold;font-size:10.5833px;line-height:1.25;font-family:Calibri;-inkscape-font-specification:'Calibri Bold Italic';text-align:center;text-anchor:middle;fill:#0e2866;fill-opacity:1;stroke-width:0.264583"
           d="m 131.16305,185.19903 c -0.36174,0 -0.68385,0.0534 -0.96635,0.1602 -0.2825,0.1068 -0.53226,0.24977 -0.7493,0.42891 -0.21359,0.1757 -0.39619,0.38068 -0.54777,0.61495 -0.15159,0.23427 -0.27557,0.4806 -0.37207,0.73898 -0.0965,0.25494 -0.16708,0.51504 -0.21188,0.78031 -0.0413,0.26183 -0.062,0.50815 -0.062,0.73897 0,0.29973 0.0413,0.55984 0.12402,0.78032 0.0827,0.21705 0.2067,0.39618 0.37207,0.53743 0.16536,0.14125 0.37035,0.24633 0.61495,0.31523 0.24805,0.069 0.53745,0.10335 0.86817,0.10335 0.19982,0 0.39619,-0.0121 0.58911,-0.0362 0.19293,-0.0207 0.3669,-0.0482 0.52193,-0.0827 0.15503,-0.0345 0.28767,-0.0724 0.39791,-0.11368 0.11024,-0.0413 0.18608,-0.0827 0.22738,-0.12403 0.0379,-0.0344 0.0706,-0.0844 0.0982,-0.14986 0.0311,-0.0655 0.0551,-0.1343 0.0724,-0.2067 0.0207,-0.0758 0.0362,-0.15158 0.0465,-0.22738 0.0105,-0.0758 0.0155,-0.14294 0.0155,-0.20154 0,-0.0517 -0.009,-0.0896 -0.0258,-0.11369 -0.0173,-0.0241 -0.0465,-0.0362 -0.0878,-0.0362 -0.0413,0 -0.10677,0.0172 -0.19637,0.0517 -0.0896,0.031 -0.20325,0.0672 -0.34106,0.10852 -0.13436,0.0379 -0.29284,0.074 -0.47543,0.10852 -0.17914,0.031 -0.3824,0.0465 -0.60978,0.0465 -0.32039,0 -0.55293,-0.0706 -0.69763,-0.21188 -0.14464,-0.14125 -0.21704,-0.3514 -0.21704,-0.63045 0,-0.0654 0.003,-0.13607 0.0103,-0.21187 0.007,-0.0792 0.0172,-0.15851 0.031,-0.23771 h 0.47542 c 0.50299,0 0.93534,-0.0379 1.29708,-0.11369 0.36518,-0.0758 0.66491,-0.18431 0.89917,-0.32556 0.23772,-0.14469 0.41169,-0.31523 0.52193,-0.5116 0.11374,-0.19981 0.17054,-0.42374 0.17054,-0.67179 0,-0.16536 -0.0361,-0.32557 -0.10852,-0.4806 -0.0689,-0.15847 -0.17571,-0.298 -0.3204,-0.41857 -0.14469,-0.12403 -0.33073,-0.22216 -0.5581,-0.29456 -0.22394,-0.0758 -0.49266,-0.11369 -0.80616,-0.11369 z m -0.11885,0.92501 c 0.20671,0 0.36345,0.0465 0.47025,0.13953 0.11026,0.0896 0.16537,0.20325 0.16537,0.34106 0,0.0965 -0.0258,0.18779 -0.0775,0.27389 -0.0517,0.0827 -0.13435,0.15504 -0.24804,0.21704 -0.11369,0.0621 -0.26356,0.11196 -0.44959,0.14986 -0.18604,0.0345 -0.41686,0.0517 -0.69246,0.0517 h -0.43409 c 0.0448,-0.16192 0.1033,-0.3135 0.1757,-0.45475 0.0758,-0.14469 0.16537,-0.26872 0.26872,-0.37207 0.10335,-0.10681 0.22221,-0.19121 0.35657,-0.25321 0.1378,-0.062 0.29284,-0.093 0.46509,-0.093 z" /><path
           style="font-style:italic;font-weight:bold;font-size:10.5833px;line-height:1.25;font-family:Calibri;-inkscape-font-specification:'Calibri Bold Italic';text-align:center;text-anchor:middle;fill:#0e2866;fill-opacity:1;stroke-width:0.264583"
           d="m 128.25379,185.42121 c 0,0.0241 -0.003,0.0672 -0.0103,0.12919 -0.007,0.062 -0.0172,0.13435 -0.031,0.21704 -0.0138,0.0827 -0.031,0.16881 -0.0517,0.25838 -0.0207,0.0861 -0.0448,0.16709 -0.0724,0.24288 -0.0241,0.0758 -0.0534,0.13781 -0.0879,0.18604 -0.031,0.0482 -0.0655,0.0723 -0.10335,0.0723 -0.031,0 -0.062,-0.005 -0.093,-0.0155 -0.031,-0.0138 -0.0655,-0.0259 -0.10336,-0.0362 -0.0379,-0.0138 -0.0792,-0.0259 -0.12402,-0.0362 -0.0448,-0.0138 -0.0965,-0.0207 -0.15503,-0.0207 -0.11713,0 -0.24288,0.0448 -0.37724,0.13436 -0.13091,0.0896 -0.25665,0.20843 -0.37723,0.35657 -0.12058,0.14469 -0.2291,0.31522 -0.32556,0.51159 -0.093,0.19293 -0.1602,0.39619 -0.20154,0.60978 l -0.41341,2.07222 c -0.007,0.0345 -0.0241,0.0655 -0.0517,0.093 -0.0241,0.0241 -0.0637,0.0448 -0.11886,0.062 -0.0517,0.0172 -0.12058,0.0293 -0.2067,0.0362 -0.0861,0.0103 -0.1912,0.0155 -0.31523,0.0155 -0.12746,0 -0.23254,-0.005 -0.31522,-0.0155 -0.0792,-0.007 -0.14297,-0.0189 -0.1912,-0.0362 -0.0448,-0.0172 -0.0741,-0.0379 -0.0879,-0.062 -0.0138,-0.0275 -0.0172,-0.0585 -0.0103,-0.093 l 0.91983,-4.61469 c 0.007,-0.0345 0.0224,-0.0638 0.0465,-0.0879 0.0241,-0.0275 0.0586,-0.0482 0.10336,-0.062 0.0482,-0.0172 0.10852,-0.0293 0.18086,-0.0362 0.0758,-0.0103 0.16537,-0.0155 0.26872,-0.0155 0.1068,0 0.19292,0.005 0.25838,0.0155 0.0689,0.007 0.1223,0.0189 0.1602,0.0362 0.0379,0.0138 0.062,0.0345 0.0724,0.062 0.0138,0.0241 0.0172,0.0534 0.0103,0.0879 l -0.1447,0.7338 c 0.0827,-0.14813 0.17743,-0.28421 0.28422,-0.40824 0.11025,-0.12402 0.22566,-0.23082 0.34623,-0.32039 0.12403,-0.093 0.2515,-0.16537 0.38241,-0.21704 0.13091,-0.0517 0.2601,-0.0775 0.38757,-0.0775 0.0517,0 0.10335,0.003 0.15503,0.0103 0.0551,0.007 0.10507,0.0155 0.14986,0.0258 0.0482,0.0103 0.0896,0.0241 0.12402,0.0413 0.0379,0.0138 0.0672,0.0293 0.0879,0.0465 0.0207,0.0207 0.031,0.0534 0.031,0.0982 z"
           id="path66" /><path
           style="font-style:italic;font-weight:bold;font-size:10.5833px;line-height:1.25;font-family:Calibri;-inkscape-font-specification:'Calibri Bold Italic';text-align:center;text-anchor:middle;fill:#0e2866;fill-opacity:1;stroke-width:0.264583"
           d="m 124.45558,183.94327 c -0.0276,0.12747 -0.062,0.23599 -0.10335,0.32556 -0.0379,0.0861 -0.0896,0.15675 -0.15503,0.21187 -0.0655,0.0517 -0.14986,0.0896 -0.25321,0.11369 -0.0999,0.0207 -0.22221,0.031 -0.3669,0.031 -0.1447,0 -0.26355,-0.0103 -0.35657,-0.031 -0.0896,-0.0241 -0.15675,-0.062 -0.20154,-0.11369 -0.0413,-0.0551 -0.0655,-0.12576 -0.0724,-0.21187 -0.004,-0.0896 0.007,-0.19809 0.031,-0.32556 0.0241,-0.12402 0.0551,-0.2291 0.093,-0.31523 0.0413,-0.0861 0.0947,-0.15675 0.1602,-0.21187 0.0689,-0.0551 0.1533,-0.0948 0.25321,-0.11885 0.0999,-0.0241 0.22221,-0.0362 0.3669,-0.0362 0.14814,0 0.26527,0.0121 0.3514,0.0362 0.0896,0.0241 0.15675,0.0637 0.20154,0.11885 0.0482,0.0551 0.0741,0.12576 0.0775,0.21187 0.007,0.0861 -0.002,0.19121 -0.0258,0.31523 z"
           id="path67" /><path
           style="font-style:italic;font-weight:bold;font-size:10.5833px;line-height:1.25;font-family:Calibri;-inkscape-font-specification:'Calibri Bold Italic';text-align:center;text-anchor:middle;fill:#0e2866;fill-opacity:1;stroke-width:0.264583"
           d="m 123.68044,185.31786 c 0.13091,0 0.22221,0.0293 0.27388,0.0879 0.0551,0.0586 0.0724,0.14817 0.0517,0.26871 l -0.88366,4.42866 c -0.007,0.0345 -0.0241,0.0655 -0.0517,0.093 -0.0241,0.0241 -0.0637,0.0448 -0.11886,0.062 -0.0517,0.0172 -0.12057,0.0293 -0.2067,0.0362 -0.0861,0.0103 -0.19293,0.0155 -0.3204,0.0155 -0.12402,0 -0.22737,-0.005 -0.31005,-0.0155 -0.0792,-0.007 -0.14125,-0.0189 -0.18604,-0.0362 -0.0448,-0.0172 -0.0758,-0.0379 -0.093,-0.062 -0.0138,-0.0275 -0.0172,-0.0585 -0.0103,-0.093 l 0.74414,-3.73103 h -1.71048 l -0.81649,4.05142 c -0.0586,0.28595 -0.13953,0.53744 -0.24288,0.75448 -0.0999,0.21704 -0.22737,0.39791 -0.3824,0.5426 -0.15503,0.14814 -0.33934,0.25838 -0.55294,0.33073 -0.21015,0.0758 -0.44958,0.11368 -0.7183,0.11368 -0.17914,0 -0.329,-0.0138 -0.44958,-0.0413 -0.12058,-0.0275 -0.19809,-0.0551 -0.23255,-0.0827 -0.0172,-0.0207 -0.0293,-0.0431 -0.0362,-0.0672 -0.007,-0.0241 -0.0103,-0.0586 -0.0103,-0.10335 0,-0.0207 0.003,-0.0551 0.0103,-0.10335 0.004,-0.0483 0.0104,-0.10167 0.0207,-0.1602 0.0103,-0.0551 0.0241,-0.1137 0.0413,-0.1757 0.0138,-0.062 0.031,-0.11884 0.0517,-0.17053 0.0172,-0.0517 0.0379,-0.0947 0.062,-0.12919 0.0241,-0.031 0.0517,-0.0465 0.0827,-0.0465 0.0207,0 0.0413,0.002 0.062,0.005 0.0207,0.003 0.0431,0.007 0.0672,0.0103 0.0241,0.007 0.0534,0.012 0.0879,0.0155 0.031,0.003 0.0724,0.005 0.12403,0.005 0.11024,0 0.2067,-0.0172 0.28939,-0.0517 0.0792,-0.031 0.14813,-0.081 0.2067,-0.14986 0.0586,-0.0689 0.10852,-0.15848 0.14986,-0.26872 0.0413,-0.1068 0.0775,-0.23771 0.10852,-0.39274 l 0.78031,-3.88606 h -0.57877 c -0.0413,0 -0.0741,-0.0138 -0.0982,-0.0413 -0.0207,-0.031 -0.031,-0.0878 -0.031,-0.17053 0,-0.0345 0.002,-0.0793 0.005,-0.13436 0.007,-0.0551 0.0155,-0.1137 0.0258,-0.1757 0.0138,-0.062 0.0293,-0.12401 0.0465,-0.18603 0.0172,-0.0655 0.0396,-0.12231 0.0672,-0.17053 0.0276,-0.0517 0.0568,-0.093 0.0879,-0.12402 0.0344,-0.0345 0.0741,-0.0517 0.11885,-0.0517 h 0.56841 l 0.0982,-0.50126 c 0.0551,-0.29283 0.13436,-0.54949 0.23771,-0.76998 0.1068,-0.22393 0.23771,-0.40996 0.39274,-0.5581 0.15503,-0.15159 0.33762,-0.26527 0.54777,-0.34106 0.21015,-0.0758 0.44958,-0.11369 0.7183,-0.11369 0.093,0 0.18087,0.005 0.26355,0.0155 0.0827,0.007 0.15675,0.0189 0.22221,0.0362 0.0655,0.0138 0.12058,0.0293 0.16536,0.0465 0.0482,0.0172 0.081,0.0362 0.0982,0.0569 0.0172,0.0172 0.0293,0.0413 0.0362,0.0723 0.0103,0.0275 0.0155,0.062 0.0155,0.10336 0,0.0207 -0.003,0.0551 -0.0103,0.10335 -0.003,0.0483 -0.0104,0.10166 -0.0207,0.16019 -0.0103,0.0586 -0.0224,0.11889 -0.0362,0.18087 -0.0138,0.062 -0.031,0.11884 -0.0517,0.17053 -0.0172,0.0517 -0.0379,0.0947 -0.062,0.12919 -0.0241,0.031 -0.0499,0.0465 -0.0775,0.0465 -0.0241,0 -0.05,-0.003 -0.0775,-0.0103 -0.0241,-0.0103 -0.0534,-0.0189 -0.0879,-0.0258 -0.0344,-0.0103 -0.0758,-0.0189 -0.12402,-0.0258 -0.0448,-0.0103 -0.0982,-0.0155 -0.1602,-0.0155 -0.1068,0 -0.19809,0.0155 -0.27388,0.0465 -0.0758,0.0275 -0.14125,0.0758 -0.19637,0.14469 -0.0551,0.0655 -0.10335,0.15159 -0.1447,0.25838 -0.0379,0.1068 -0.0706,0.23427 -0.0982,0.38241 l -0.0775,0.40824 z"
           id="path68" /><path
           id="path69"
           style="font-style:italic;font-weight:bold;font-size:10.5833px;line-height:1.25;font-family:Calibri;-inkscape-font-specification:'Calibri Bold Italic';text-align:center;text-anchor:middle;fill:#0e2866;fill-opacity:1;stroke-width:0.264583"
           d="m 115.62963,185.19903 c -0.30661,0 -0.58222,0.0551 -0.82682,0.16537 -0.24115,0.10679 -0.45647,0.25149 -0.64595,0.43408 -0.18604,0.18259 -0.34623,0.39274 -0.48059,0.63045 -0.13436,0.23427 -0.24463,0.47888 -0.33073,0.73381 -0.0861,0.25494 -0.14991,0.51159 -0.19121,0.76997 -0.0413,0.25493 -0.062,0.49093 -0.062,0.70797 0,0.23082 0.0224,0.45131 0.0672,0.66146 0.0482,0.21015 0.12747,0.3979 0.23771,0.56327 0.11024,0.16192 0.25666,0.29108 0.43925,0.38758 0.18259,0.0965 0.41169,0.14469 0.6873,0.14469 0.19982,0 0.39273,-0.0327 0.57877,-0.0982 0.18948,-0.0654 0.36174,-0.14815 0.51677,-0.24805 0.15503,-0.0999 0.2894,-0.21016 0.40308,-0.33073 0.11369,-0.12403 0.19634,-0.24116 0.24804,-0.3514 l -0.14469,0.73897 c -0.007,0.0379 -0.006,0.0707 0.005,0.0982 0.0138,0.0241 0.0414,0.0448 0.0827,0.062 0.0413,0.0138 0.0948,0.024 0.1602,0.031 0.0689,0.007 0.15675,0.0103 0.26355,0.0103 0.21015,0 0.36175,-0.0155 0.45475,-0.0465 0.0965,-0.031 0.15157,-0.0826 0.16537,-0.15503 l 0.92552,-4.61987 c 0.007,-0.0345 0.003,-0.0637 -0.0103,-0.0879 -0.0138,-0.0275 -0.0414,-0.0482 -0.0827,-0.062 -0.0379,-0.0173 -0.0913,-0.0292 -0.16019,-0.0362 -0.0689,-0.0105 -0.15503,-0.0155 -0.25839,-0.0155 -0.21015,0 -0.36342,0.0155 -0.45992,0.0465 -0.093,0.031 -0.14639,0.0826 -0.16019,0.15503 l -0.0827,0.40824 c -0.16537,-0.22737 -0.35828,-0.39963 -0.57877,-0.51676 -0.22048,-0.12057 -0.47371,-0.18087 -0.75965,-0.18087 z m 0.077,1.10588 c 0.19292,0 0.36173,0.0482 0.50643,0.14469 0.14814,0.093 0.2825,0.23427 0.40308,0.42375 l -0.1447,0.69763 c -0.0482,0.23771 -0.12574,0.46164 -0.23254,0.67179 -0.10335,0.2067 -0.22394,0.3893 -0.36174,0.54777 -0.13781,0.15503 -0.28593,0.27907 -0.44441,0.37207 -0.15847,0.0896 -0.3135,0.13436 -0.46509,0.13436 -0.10679,0 -0.19465,-0.0207 -0.26355,-0.062 -0.0689,-0.0448 -0.12406,-0.1033 -0.16536,-0.1757 -0.0414,-0.0724 -0.0706,-0.15505 -0.0878,-0.24805 -0.0137,-0.093 -0.0207,-0.1912 -0.0207,-0.29455 0,-0.14125 0.0103,-0.29455 0.031,-0.45992 0.0242,-0.16881 0.0585,-0.33418 0.10335,-0.4961 0.0482,-0.16537 0.1068,-0.32384 0.1757,-0.47542 0.0724,-0.15159 0.15505,-0.28422 0.24805,-0.39791 0.093,-0.11713 0.19981,-0.21015 0.32039,-0.27905 0.12058,-0.069 0.25322,-0.10335 0.39791,-0.10335 z" /><path
           style="font-style:italic;font-weight:bold;font-size:10.5833px;line-height:1.25;font-family:Calibri;-inkscape-font-specification:'Calibri Bold Italic';text-align:center;text-anchor:middle;fill:#0e2866;fill-opacity:1;stroke-width:0.264583"
           d="m 111.67604,190.10325 c -0.007,0.0345 -0.0241,0.0655 -0.0517,0.093 -0.0241,0.0241 -0.0637,0.0448 -0.11886,0.062 -0.0517,0.0172 -0.12057,0.0293 -0.2067,0.0362 -0.0861,0.0103 -0.1912,0.0155 -0.31523,0.0155 -0.12746,0 -0.23254,-0.005 -0.31522,-0.0155 -0.0792,-0.007 -0.14297,-0.0189 -0.1912,-0.0362 -0.0448,-0.0172 -0.0741,-0.0379 -0.0879,-0.062 -0.0138,-0.0275 -0.0172,-0.0585 -0.0103,-0.093 l 0.91466,-4.59919 c 0.007,-0.0345 0.0224,-0.0638 0.0465,-0.0879 0.0276,-0.0275 0.0672,-0.0499 0.11886,-0.0672 0.0551,-0.0207 0.12402,-0.0362 0.20671,-0.0465 0.0861,-0.0103 0.19292,-0.0155 0.32039,-0.0155 0.12747,0 0.23082,0.005 0.31006,0.0155 0.0827,0.0103 0.14641,0.0258 0.1912,0.0465 0.0482,0.0172 0.0792,0.0396 0.093,0.0672 0.0138,0.0241 0.0172,0.0534 0.0103,0.0879 z"
           id="path70" /><path
           style="font-style:italic;font-weight:bold;font-size:10.5833px;line-height:1.25;font-family:Calibri;-inkscape-font-specification:'Calibri Bold Italic';text-align:center;text-anchor:middle;fill:#0e2866;fill-opacity:1;stroke-width:0.264583"
           d="m 113.00929,183.94344 c -0.0241,0.12747 -0.0568,0.23599 -0.0982,0.32556 -0.0413,0.0861 -0.0965,0.15675 -0.16537,0.21187 -0.0689,0.0517 -0.1533,0.0896 -0.25321,0.11369 -0.0999,0.0207 -0.22393,0.031 -0.37207,0.031 -0.14469,0 -0.26355,-0.0103 -0.35657,-0.031 -0.0896,-0.0241 -0.15847,-0.062 -0.2067,-0.11369 -0.0448,-0.0551 -0.0706,-0.12576 -0.0775,-0.21187 -0.007,-0.0896 0.004,-0.19809 0.031,-0.32556 0.0241,-0.12402 0.0568,-0.2291 0.0982,-0.31523 0.0413,-0.0861 0.0965,-0.15675 0.16536,-0.21187 0.0689,-0.0551 0.15331,-0.0948 0.25322,-0.11885 0.0999,-0.0241 0.22393,-0.0362 0.37207,-0.0362 0.14469,0 0.26182,0.0121 0.35139,0.0362 0.093,0.0241 0.16192,0.0638 0.20671,0.11885 0.0482,0.0551 0.0741,0.12576 0.0775,0.21187 0.007,0.0861 -0.002,0.19121 -0.0258,0.31523 z"
           id="path71" /><path
           id="path72"
           style="font-style:italic;font-weight:bold;font-size:10.5833px;line-height:1.25;font-family:Calibri;-inkscape-font-specification:'Calibri Bold Italic';text-align:center;text-anchor:middle;fill:#0e2866;fill-opacity:1;stroke-width:0.264583"
           d="m 109.83154,183.10097 c -0.12747,0 -0.23429,0.005 -0.32039,0.0155 -0.0827,0.0103 -0.15161,0.0258 -0.20671,0.0465 -0.0517,0.0173 -0.0896,0.0397 -0.11369,0.0672 -0.0241,0.0275 -0.0395,0.0585 -0.0465,0.093 l -0.49092,2.43396 c -0.0586,-0.0758 -0.12918,-0.14814 -0.21188,-0.21704 -0.0827,-0.0689 -0.1757,-0.1275 -0.27905,-0.1757 -0.0999,-0.0518 -0.21187,-0.0914 -0.3359,-0.11886 -0.12057,-0.031 -0.24804,-0.0465 -0.3824,-0.0465 -0.30317,0 -0.57706,0.0534 -0.82166,0.1602 -0.24116,0.1068 -0.45647,0.24977 -0.64595,0.42891 -0.18603,0.17915 -0.34623,0.38585 -0.48059,0.62012 -0.13435,0.23427 -0.2463,0.47888 -0.3359,0.73381 -0.0861,0.25149 -0.1499,0.50643 -0.1912,0.76481 -0.0413,0.25493 -0.062,0.49437 -0.062,0.7183 0,0.13436 0.009,0.27216 0.0258,0.41341 0.0173,0.13781 0.0465,0.27217 0.0879,0.40308 0.0413,0.13091 0.0965,0.25494 0.16537,0.37207 0.0689,0.11713 0.15503,0.21879 0.25838,0.30489 0.1068,0.0861 0.23254,0.15324 0.37724,0.20154 0.14814,0.0517 0.32039,0.0775 0.51676,0.0775 0.19982,0 0.39274,-0.0327 0.57878,-0.0982 0.18947,-0.062 0.36173,-0.14298 0.51676,-0.24288 0.15503,-0.10335 0.28939,-0.21533 0.40308,-0.3359 0.11369,-0.12403 0.19635,-0.24116 0.24805,-0.3514 l -0.13953,0.73897 c -0.007,0.0379 -0.006,0.0707 0.005,0.0982 0.0138,0.0241 0.0414,0.0448 0.0827,0.062 0.0413,0.0138 0.0948,0.024 0.1602,0.031 0.0689,0.007 0.15675,0.0103 0.26355,0.0103 0.21015,0 0.36175,-0.0155 0.45475,-0.0465 0.0965,-0.031 0.15157,-0.0826 0.16537,-0.15503 l 1.35444,-6.78511 c 0.007,-0.0345 0.003,-0.0655 -0.0103,-0.093 -0.0138,-0.0276 -0.043,-0.05 -0.0878,-0.0672 -0.0448,-0.0207 -0.1085,-0.0362 -0.1912,-0.0465 -0.0792,-0.0105 -0.1826,-0.0155 -0.31006,-0.0155 z m -2.31045,3.20394 c 0.19292,0 0.36173,0.0482 0.50642,0.14469 0.14814,0.0965 0.2825,0.23944 0.40308,0.42892 l -0.14469,0.7028 c -0.0482,0.23771 -0.12576,0.46164 -0.23255,0.67179 -0.10336,0.20671 -0.22392,0.38757 -0.36173,0.5426 -0.1378,0.15159 -0.28595,0.2739 -0.44442,0.3669 -0.15848,0.0896 -0.31351,0.13436 -0.46509,0.13436 -0.18603,0 -0.32214,-0.0655 -0.40824,-0.19637 -0.0861,-0.13436 -0.12919,-0.33245 -0.12919,-0.59428 0,-0.14813 0.0121,-0.30488 0.0362,-0.47025 0.0242,-0.16537 0.0585,-0.33074 0.10335,-0.4961 0.0482,-0.16537 0.1068,-0.32211 0.1757,-0.47025 0.0724,-0.15158 0.15505,-0.28249 0.24805,-0.39274 0.0965,-0.11367 0.20325,-0.20322 0.32039,-0.26872 0.12058,-0.069 0.2515,-0.10335 0.39275,-0.10335 z" /><path
           id="path73"
           style="font-style:italic;font-weight:bold;font-size:10.5833px;line-height:1.25;font-family:Calibri;-inkscape-font-specification:'Calibri Bold Italic';text-align:center;text-anchor:middle;fill:#0e2866;fill-opacity:1;stroke-width:0.264583"
           d="m 102.60149,185.19903 c -0.36173,0 -0.68386,0.0534 -0.96635,0.1602 -0.2825,0.1068 -0.53227,0.24977 -0.74931,0.42891 -0.21359,0.1757 -0.39618,0.38068 -0.54777,0.61495 -0.15158,0.23427 -0.27561,0.4806 -0.372069,0.73898 -0.09646,0.25494 -0.167083,0.51504 -0.211873,0.78031 -0.04134,0.26183 -0.06201,0.50815 -0.06201,0.73897 0,0.29973 0.04134,0.55984 0.124024,0.78032 0.08268,0.21705 0.206708,0.39618 0.372068,0.53743 0.16537,0.14125 0.37035,0.24633 0.61495,0.31523 0.24805,0.0689 0.53743,0.10335 0.86816,0.10335 0.19982,0 0.39619,-0.0121 0.58911,-0.0362 0.19293,-0.0207 0.36691,-0.0482 0.52194,-0.0827 0.15503,-0.0345 0.28767,-0.0724 0.39791,-0.11368 0.11024,-0.0413 0.18607,-0.0827 0.22737,-0.12403 0.0379,-0.0344 0.0706,-0.0844 0.0982,-0.14986 0.0311,-0.0655 0.0551,-0.1343 0.0723,-0.2067 0.0207,-0.0758 0.0362,-0.15158 0.0465,-0.22738 0.0105,-0.0758 0.0155,-0.14294 0.0155,-0.20154 0,-0.0517 -0.008,-0.0896 -0.0253,-0.11369 -0.0173,-0.0241 -0.0471,-0.0362 -0.0884,-0.0362 -0.0413,0 -0.10677,0.0172 -0.19637,0.0517 -0.0896,0.031 -0.20327,0.0672 -0.34107,0.10852 -0.13436,0.0379 -0.29283,0.074 -0.47542,0.10852 -0.17915,0.031 -0.38241,0.0465 -0.60978,0.0465 -0.32039,0 -0.55294,-0.0706 -0.69763,-0.21188 -0.14464,-0.14125 -0.21705,-0.3514 -0.21705,-0.63045 0,-0.0654 0.003,-0.13607 0.0103,-0.21187 0.007,-0.0792 0.0172,-0.15851 0.031,-0.23771 h 0.47542 c 0.50298,0 0.93535,-0.0379 1.29708,-0.11369 0.36518,-0.0758 0.66491,-0.18431 0.89917,-0.32556 0.23771,-0.14469 0.41169,-0.31523 0.52193,-0.5116 0.11373,-0.19981 0.17053,-0.42374 0.17053,-0.67179 0,-0.16536 -0.0361,-0.32557 -0.10852,-0.4806 -0.0689,-0.15847 -0.1757,-0.298 -0.32039,-0.41857 -0.1447,-0.12403 -0.33073,-0.22216 -0.55811,-0.29456 -0.22393,-0.0758 -0.49264,-0.11369 -0.80615,-0.11369 z m -0.11886,0.92501 c 0.20671,0 0.36346,0.0465 0.47026,0.13953 0.11026,0.0896 0.16536,0.20325 0.16536,0.34106 0,0.0965 -0.0258,0.18779 -0.0775,0.27389 -0.0517,0.0827 -0.13436,0.15504 -0.24805,0.21704 -0.11369,0.0621 -0.26355,0.11196 -0.44958,0.14986 -0.18604,0.0345 -0.41686,0.0517 -0.69247,0.0517 h -0.43408 c 0.0448,-0.16192 0.1033,-0.3135 0.1757,-0.45475 0.0758,-0.14469 0.16537,-0.26872 0.26872,-0.37207 0.10335,-0.10681 0.22221,-0.19121 0.35657,-0.25321 0.1378,-0.062 0.29283,-0.093 0.46508,-0.093 z" /><path
           style="font-style:italic;font-weight:bold;font-size:10.5833px;line-height:1.25;font-family:Calibri;-inkscape-font-specification:'Calibri Bold Italic';text-align:center;text-anchor:middle;fill:#0e2866;fill-opacity:1;stroke-width:0.264583"
           d="m 98.317725,190.10324 c -0.0069,0.0345 -0.02411,0.0655 -0.05168,0.093 -0.02411,0.0241 -0.06373,0.0448 -0.118856,0.062 -0.05512,0.0172 -0.125744,0.0293 -0.211873,0.0362 -0.08268,0.0103 -0.187757,0.0155 -0.315225,0.0155 -0.124023,0 -0.227375,-0.005 -0.310057,-0.0155 -0.08268,-0.007 -0.146416,-0.0189 -0.191203,-0.0362 -0.04479,-0.0172 -0.07579,-0.0379 -0.09302,-0.062 -0.01378,-0.0275 -0.01551,-0.0585 -0.0052,-0.093 l 0.552936,-2.76468 c 0.01378,-0.0792 0.02584,-0.15675 0.03617,-0.23254 0.01033,-0.0792 0.0155,-0.15848 0.0155,-0.23771 0,-0.16192 -0.03101,-0.29283 -0.09302,-0.39274 -0.05857,-0.0999 -0.165364,-0.14986 -0.320393,-0.14986 -0.137803,0 -0.280774,0.0448 -0.428913,0.13435 -0.148139,0.0896 -0.29111,0.21188 -0.428913,0.36691 -0.134359,0.15158 -0.254937,0.33072 -0.361734,0.53743 -0.103353,0.20326 -0.177422,0.4203 -0.222208,0.65112 l -0.418578,2.08772 c -0.0069,0.0345 -0.02412,0.0655 -0.05168,0.093 -0.02411,0.0241 -0.06373,0.0448 -0.118856,0.062 -0.05512,0.0172 -0.125744,0.0293 -0.211872,0.0362 -0.08268,0.0103 -0.187757,0.0155 -0.315226,0.0155 -0.124023,0 -0.227375,-0.005 -0.310057,-0.0155 -0.07924,-0.007 -0.141249,-0.0189 -0.186035,-0.0362 -0.04479,-0.0172 -0.07579,-0.0379 -0.09302,-0.062 -0.01378,-0.0275 -0.01722,-0.0585 -0.01033,-0.093 l 0.547768,-2.76468 c 0.02067,-0.0792 0.03445,-0.16019 0.04134,-0.24288 0.01033,-0.0861 0.0155,-0.16881 0.0155,-0.24804 0,-0.15159 -0.03101,-0.27561 -0.09302,-0.37207 -0.06201,-0.0999 -0.168811,-0.14986 -0.320393,-0.14986 -0.137803,0 -0.280774,0.0448 -0.428913,0.13435 -0.148139,0.0896 -0.29111,0.21188 -0.428913,0.36691 -0.134359,0.15158 -0.254937,0.33072 -0.361734,0.53743 -0.103353,0.20326 -0.177422,0.4203 -0.222208,0.65112 l -0.418578,2.08772 c -0.0069,0.0345 -0.02411,0.0655 -0.05168,0.093 -0.02411,0.0241 -0.06373,0.0448 -0.118855,0.062 -0.05167,0.0172 -0.120575,0.0293 -0.206705,0.0362 -0.08613,0.0103 -0.191203,0.0155 -0.315226,0.0155 -0.127468,0 -0.232543,-0.005 -0.315225,-0.0155 -0.07924,-0.007 -0.142971,-0.0189 -0.191202,-0.0362 -0.04479,-0.0172 -0.07407,-0.0379 -0.08785,-0.062 -0.01378,-0.0275 -0.01722,-0.0585 -0.01033,-0.093 l 0.925005,-4.61469 c 0.0069,-0.0345 0.02067,-0.0638 0.04134,-0.0879 0.02411,-0.0275 0.05856,-0.0482 0.103353,-0.062 0.04823,-0.0172 0.108522,-0.0293 0.180867,-0.0362 0.07579,-0.0103 0.165363,-0.0155 0.268716,-0.0155 0.106798,0 0.192925,0.005 0.258382,0.0155 0.0689,0.007 0.1223,0.0189 0.160196,0.0362 0.03789,0.0138 0.06201,0.0345 0.07235,0.062 0.01378,0.0241 0.01722,0.0534 0.01033,0.0879 l -0.149861,0.75964 c 0.07235,-0.12058 0.168809,-0.24288 0.289387,-0.3669 0.120578,-0.12747 0.256659,-0.24115 0.408243,-0.34106 0.155029,-0.0999 0.322115,-0.18087 0.501259,-0.24288 0.18259,-0.0655 0.370347,-0.0982 0.563272,-0.0982 0.199815,0 0.372069,0.0276 0.516762,0.0827 0.148139,0.0517 0.268717,0.12573 0.361734,0.2222 0.09646,0.093 0.16881,0.20326 0.217041,0.33073 0.05167,0.12747 0.0844,0.26527 0.09818,0.41341 0.07924,-0.12402 0.179145,-0.24804 0.299723,-0.37207 0.124023,-0.12402 0.261826,-0.23598 0.41341,-0.33589 0.155029,-0.0999 0.322115,-0.18087 0.50126,-0.24288 0.179144,-0.0655 0.363456,-0.0982 0.552936,-0.0982 0.241156,0 0.442693,0.0344 0.604612,0.10336 0.165364,0.0655 0.298,0.15848 0.397907,0.27905 0.09991,0.11713 0.172255,0.25666 0.217041,0.41858 0.04479,0.15847 0.06718,0.33073 0.06718,0.51676 0,0.12058 -0.0069,0.24288 -0.02067,0.3669 -0.01378,0.12058 -0.03445,0.2446 -0.06201,0.37207 z"
           id="path74" /></g><path
         id="path86"
         style="fill:#0e2866;fill-opacity:1;stroke:none;stroke-width:0.188612px;stroke-linecap:butt;stroke-linejoin:miter;stroke-opacity:1"
         d="m 116.66882,218.90239 c 0,0 0.70311,-0.009 0.7028,0.76327 -2.1e-4,0.52379 -0.90981,0.70177 -1.41749,0.70177 -0.50769,0 1.90066,0.24753 1.90066,0.24753 0,0 2.40835,-0.24753 1.90066,-0.24753 -0.50768,0 -1.41727,-0.17798 -1.41748,-0.70177 -3.1e-4,-0.77236 0.7028,-0.7741 0.7028,-0.7741 -0.38593,-0.0591 -0.92254,-0.35761 -1.19395,-0.35761 -0.27141,0 -0.7961,0.22988 -1.178,0.36844 z" /></g></g></svg>
